<svg width="1000" height="1000" viewBox="0 0 1000 1000" fill="none" xmlns="http://www.w3.org/2000/svg">
<rect width="1000" height="1000" fill="black"/>
<path fill-rule="evenodd" clip-rule="evenodd" d="M264.033 205H736.3C751.916 205 766.895 211.187 777.96 222.207C789.024 233.227 795.271 248.182 795.333 263.797V618.469C795.333 650.879 768.857 677.267 736.3 677.267H540.044L352.583 795.333V677.267H264.033C231.476 677.267 205 650.879 205 618.469V263.797C205 231.388 231.476 205 264.033 205ZM434.019 456.133C417.341 446.817 396.269 452.785 386.953 469.462C377.637 486.14 383.605 507.213 400.283 516.529C436.069 536.518 466.192 552.497 499.063 552.74C532.185 552.985 562.664 537.307 599.534 516.43C616.157 507.018 622.003 485.911 612.59 469.287C603.177 452.664 582.071 446.818 565.447 456.231C526.213 478.447 511.405 483.65 499.574 483.563C487.492 483.473 472.998 477.906 434.019 456.133ZM455.892 354.543C455.892 375.366 439.011 392.246 418.189 392.246C397.366 392.246 380.486 375.366 380.486 354.543C380.486 333.721 397.366 316.84 418.189 316.84C439.011 316.84 455.892 333.721 455.892 354.543ZM582.145 392.246C602.967 392.246 619.847 375.366 619.847 354.543C619.847 333.721 602.967 316.84 582.145 316.84C561.322 316.84 544.442 333.721 544.442 354.543C544.442 375.366 561.322 392.246 582.145 392.246Z" fill="white"/>
</svg>
